<?xml version="1.0" encoding="UTF-8" standalone="no"?>
<!-- Uploaded to: SVG Repo, www.svgrepo.com, Transformed by: SVG Repo Mixer Tools -->

<svg
   fill="#ffffff"
   width="800px"
   height="800px"
   viewBox="0 0 56 56"
   stroke="#ffffff"
   version="1.1"
   id="svg1"
   sodipodi:docname="gear.svg"
   inkscape:version="1.4 (86a8ad7, 2024-10-11)"
   xmlns:inkscape="http://www.inkscape.org/namespaces/inkscape"
   xmlns:sodipodi="http://sodipodi.sourceforge.net/DTD/sodipodi-0.dtd"
   xmlns="http://www.w3.org/2000/svg"
   xmlns:svg="http://www.w3.org/2000/svg">
  <defs
     id="defs1" />
  <sodipodi:namedview
     id="namedview1"
     pagecolor="#ffffff"
     bordercolor="#666666"
     borderopacity="1.0"
     inkscape:showpageshadow="2"
     inkscape:pageopacity="0.0"
     inkscape:pagecheckerboard="0"
     inkscape:deskcolor="#d1d1d1"
     inkscape:zoom="0.37918601"
     inkscape:cx="414.04481"
     inkscape:cy="152.95923"
     inkscape:window-width="1920"
     inkscape:window-height="1051"
     inkscape:window-x="-9"
     inkscape:window-y="-9"
     inkscape:window-maximized="1"
     inkscape:current-layer="svg1" />
  <g
     id="SVGRepo_bgCarrier"
     stroke-width="0" />
  <g
     id="SVGRepo_tracerCarrier"
     stroke-linecap="round"
     stroke-linejoin="round" />
  <path
     id="path1"
     style="fill:#ffffff;stroke:#000000"
     d="M 27.977852 1.6005664 C 27.390679 1.5863793 26.926738 1.9679299 26.711836 2.5745508 L 25.824668 5.2829492 C 24.632439 5.3793501 23.401889 5.5890808 22.240586 5.865918 L 20.514922 3.6517578 C 20.136381 3.1354099 19.57893 2.975999 18.923789 3.2201367 C 18.388166 3.3980628 18.042777 3.9023298 18.072305 4.4605859 L 18.181406 7.3653125 C 17.080303 7.866278 16.06594 8.4983575 15.036602 9.2032227 L 12.598496 7.6602148 C 12.082526 7.3352998 11.471903 7.3615911 11.016523 7.775332 C 10.561194 8.1889863 10.433702 8.7379406 10.68416 9.2885352 L 11.730469 11.976289 C 10.892341 12.81857 10.083252 13.70446 9.3895703 14.765352 L 6.6013281 14.15709 C 5.9798723 14.014683 5.4730711 14.236243 5.1566211 14.784355 C 4.8402211 15.332375 4.901709 15.882041 5.3239648 16.369473 L 7.245 18.479863 C 6.6847816 19.59079 6.2987111 20.775081 6.0000391 21.901797 L 3.1608008 22.319336 C 2.5470431 22.397996 2.1237062 22.803095 1.9930859 23.404336 C 1.8625157 24.00549 2.1451034 24.547568 2.6844727 24.831953 L 5.2513672 26.151563 C 5.1557052 27.395255 5.1155052 28.589987 5.2119922 29.782266 L 2.6941797 31.143301 C 2.1318852 31.414024 1.8677614 31.96519 2.0018359 32.529766 C 2.117927 33.21929 2.5465505 33.601922 3.1711914 33.692012 L 5.9750195 34.03873 C 6.2925233 35.223398 6.73789 36.373725 7.2504688 37.454512 L 5.3368164 39.597168 C 4.9306182 40.066323 4.8321046 40.658947 5.1380273 41.160273 C 5.4813316 41.737453 6.0154512 41.937461 6.6121289 41.794785 L 9.3676953 41.19377 C 10.095874 42.182527 10.867786 43.142301 11.730332 43.992129 L 10.657363 46.647344 C 10.422146 47.242351 10.556285 47.806791 11.005176 48.201289 C 11.526612 48.610536 12.113793 48.624818 12.594941 48.307246 L 15.04084 46.7425 C 15.56546 47.09943 16.037741 47.453268 16.585762 47.769668 C 17.113518 48.074368 17.635825 48.294696 18.207246 48.570566 L 18.095547 51.482949 C 18.061007 52.058371 18.36684 52.559736 18.961797 52.795039 C 19.527801 52.986491 20.104095 52.832213 20.481426 52.319258 L 22.264785 50.074199 C 23.411679 50.384521 24.628898 50.573152 25.849277 50.709395 L 26.726875 53.408086 C 26.901566 53.996112 27.341757 54.358585 28.013262 54.367305 C 28.600471 54.381625 29.064318 53.99991 29.26752 53.413555 L 30.166445 50.684922 C 31.338459 50.576735 32.557383 50.387429 33.741914 50.069961 L 35.464434 52.336484 C 35.854861 52.832444 36.380241 53.000608 37.035605 52.756484 C 37.59158 52.590308 37.936552 52.085716 37.910469 51.475293 L 37.809707 48.602695 C 38.910846 48.101866 39.925461 47.469564 40.954785 46.764922 L 43.360762 48.316406 C 43.876645 48.641271 44.487114 48.614851 44.962969 48.213047 C 45.418089 47.799156 45.537221 47.218354 45.298203 46.647344 L 44.260781 43.991719 C 45.087296 43.169753 45.899441 42.23139 46.613301 41.182148 L 49.389648 41.810918 C 50.002726 41.921236 50.550084 41.723062 50.866484 41.175039 C 51.171184 40.647283 51.06914 40.074093 50.667012 39.598398 L 48.74625 37.488008 C 49.29799 36.345166 49.681063 35.213242 49.991348 34.066211 L 52.821563 33.616543 C 53.42388 33.558303 53.855576 33.18491 53.986406 32.583906 C 54.096501 31.970815 53.814068 31.429003 53.274785 31.144668 L 50.739883 29.816582 C 50.835563 28.572667 50.875809 27.378099 50.759023 26.173984 L 53.29707 24.824844 C 53.827053 24.562486 54.091497 24.011431 53.957422 23.446855 C 53.841108 22.757318 53.444691 22.365932 52.808164 22.29623 L 50.00748 21.897148 C 49.666749 20.75311 49.233009 19.582497 48.740645 18.513496 L 50.642539 16.391074 C 51.060437 15.901654 51.159045 15.309061 50.853086 14.807598 C 50.498031 14.25077 49.987404 14.010114 49.367363 14.193457 L 46.614805 14.742246 C 45.886623 13.753489 45.091412 12.834222 44.260918 11.975879 L 45.313379 9.3089063 C 45.557198 8.7460003 45.414586 8.1493785 44.954082 7.7751953 C 44.452825 7.3775987 43.87737 7.343139 43.396309 7.6607617 L 40.929902 9.2138867 C 40.405331 8.8568701 39.941584 8.5348953 39.413828 8.2301953 C 38.865807 7.9137953 38.355231 7.673167 37.763496 7.3856836 L 37.895703 4.4849219 C 37.930155 3.9094492 37.612597 3.4283987 36.997461 3.1814453 C 36.44307 2.9696785 35.875386 3.1561363 35.489453 3.6369922 L 33.738086 5.8735742 C 32.54744 5.5920322 31.353708 5.3629212 30.153594 5.2383789 L 29.252617 2.5801563 C 29.081024 1.9397635 28.617341 1.6179384 27.977852 1.6005664 z M 29.384961 8.772832 C 32.177879 8.9509552 34.993963 9.7919403 37.632656 11.315391 C 46.482396 16.424791 49.545204 27.151164 45.170645 36.181523 L 38.753203 25.038809 L 35.757559 30.225371 L 30.828574 38.759629 L 43.647188 38.820195 C 38.017046 47.071488 27.196458 49.782123 18.36707 44.684473 C 15.667582 43.125923 13.513815 41.043607 11.93418 38.670215 L 25.123848 38.732559 L 20.211816 30.223867 L 16.994688 24.651211 L 10.42043 35.90166 C 8.0664183 30.510127 8.2838817 24.086521 11.518281 18.484375 C 11.832946 17.93936 12.174893 17.42141 12.530273 16.918125 L 12.440176 16.761992 L 12.639922 16.761992 C 15.964297 12.147029 20.938749 9.3423168 26.242207 8.8257422 L 21.60416 16.762813 L 27.986055 16.763496 L 33.987461 16.764043 L 29.384961 8.772832 z M 27.855488 20.282363 A 5.4825172 5.4825172 0 0 0 22.37293 25.764785 A 5.4825172 5.4825172 0 0 0 27.855488 31.247344 A 5.4825172 5.4825172 0 0 0 33.338047 25.764785 A 5.4825172 5.4825172 0 0 0 27.855488 20.282363 z " />
</svg>
